<svg width="500" height="500" viewBox="0 0 500 500" fill="none" xmlns="http://www.w3.org/2000/svg">
<g clip-path="url(#clip0)">
<path d="M132 64.0161L177.133 111.514M177.133 9L207.211 77.607L285 124" stroke="#0F4390" stroke-width="5"/>
<path d="M170 134L261 148" stroke="#0F4390" stroke-width="5"/>
<path d="M261 240.924L323.729 219L365 294" stroke="#0F4390" stroke-width="5"/>
<path d="M223 294.568L285.685 273L327 346" stroke="#0F4390" stroke-width="5"/>
<path d="M180 321L104.116 363.253L81 453" stroke="#0F4390" stroke-width="5"/>
<path d="M67 322L22 465" stroke="#0F4390" stroke-width="5"/>
<path d="M198 166L169.667 241.487L77.5833 294L45 266.103" stroke="#0F4390" stroke-width="5"/>
<g filter="url(#filter0_d)">
<path d="M157.7 390.9C151.1 390.9 145.067 392.6 139.6 396C134.2 399.333 129.9 403.833 126.7 409.5C123.567 415.1 122 421.133 122 427.6C122 434.133 123.6 440.2 126.8 445.8C130 451.4 134.233 455.867 139.5 459.2C144.833 462.467 150.567 464.1 156.7 464.1C160.3 464.1 163.5 463.767 166.3 463.1C169.167 462.433 171.9 461.367 174.5 459.9V436.4H149.7V433.5H177.8V457.8L178 457.7V461.4C174.8 463.333 171.5 464.733 168.1 465.6C164.767 466.533 161.1 467 157.1 467C150.1 467 143.667 465.3 137.8 461.9C131.933 458.433 127.267 453.7 123.8 447.7C120.4 441.633 118.7 434.833 118.7 427.3C118.7 420.033 120.467 413.4 124 407.4C127.6 401.4 132.367 396.667 138.3 393.2C144.3 389.733 150.667 388 157.4 388C162.067 388 165.767 388.433 168.5 389.3C171.233 390.1 174.4 391.533 178 393.6V397.3C174.6 394.967 171.433 393.333 168.5 392.4C165.633 391.4 162.033 390.9 157.7 390.9ZM261.729 465H258.229L244.029 436.4H204.229L190.329 465H186.829L224.229 388.2L261.729 465ZM242.829 433.5L224.029 395.4L205.629 433.5H242.829ZM301.045 467C294.045 467 287.612 465.3 281.745 461.9C275.879 458.433 271.212 453.7 267.745 447.7C264.345 441.633 262.645 434.833 262.645 427.3C262.645 420.033 264.412 413.4 267.945 407.4C271.545 401.4 276.312 396.667 282.245 393.2C288.245 389.733 294.612 388 301.345 388C306.012 388 309.712 388.433 312.445 389.3C315.179 390.1 318.345 391.533 321.945 393.6V397.3C318.545 394.967 315.379 393.333 312.445 392.4C309.579 391.4 305.979 390.9 301.645 390.9C295.045 390.9 289.012 392.6 283.545 396C278.145 399.333 273.845 403.833 270.645 409.5C267.512 415.1 265.945 421.133 265.945 427.6C265.945 434.133 267.545 440.2 270.745 445.8C273.945 451.4 278.179 455.867 283.445 459.2C288.779 462.467 294.512 464.1 300.645 464.1C305.045 464.1 308.879 463.6 312.145 462.6C315.412 461.533 318.679 459.9 321.945 457.7V461.4C318.745 463.333 315.445 464.733 312.045 465.6C308.712 466.533 305.045 467 301.045 467ZM336.158 390H363.058V392.9H339.458V433.7H359.158V436.6H339.458V462.1H363.058V465H336.158V390ZM373.56 390H376.86V462.1H400.06V465H373.56V390ZM480.284 465H476.784L462.584 436.4H422.784L408.884 465H405.384L442.784 388.2L480.284 465ZM461.384 433.5L442.584 395.4L424.184 433.5H461.384Z" fill="#0F4390"/>
<path d="M139.6 396L140.125 396.851L140.128 396.849L139.6 396ZM126.7 409.5L125.829 409.008L125.827 409.012L126.7 409.5ZM126.8 445.8L125.932 446.296L125.932 446.296L126.8 445.8ZM139.5 459.2L138.965 460.045L138.971 460.049L138.978 460.053L139.5 459.2ZM166.3 463.1L166.073 462.126L166.068 462.127L166.3 463.1ZM174.5 459.9L174.991 460.771L175.5 460.484V459.9H174.5ZM174.5 436.4H175.5V435.4H174.5V436.4ZM149.7 436.4H148.7V437.4H149.7V436.4ZM149.7 433.5V432.5H148.7V433.5H149.7ZM177.8 433.5H178.8V432.5H177.8V433.5ZM177.8 457.8H176.8V459.418L178.247 458.694L177.8 457.8ZM178 457.7H179V456.082L177.553 456.806L178 457.7ZM178 461.4L178.517 462.256L179 461.964V461.4H178ZM168.1 465.6L167.853 464.631L167.842 464.634L167.83 464.637L168.1 465.6ZM137.8 461.9L137.291 462.761L137.299 462.765L137.8 461.9ZM123.8 447.7L122.928 448.189L122.934 448.2L123.8 447.7ZM124 407.4L123.142 406.885L123.138 406.893L124 407.4ZM138.3 393.2L137.8 392.334L137.796 392.337L138.3 393.2ZM168.5 389.3L168.198 390.253L168.208 390.257L168.219 390.26L168.5 389.3ZM178 393.6H179V393.021L178.498 392.733L178 393.6ZM178 397.3L177.434 398.125L179 399.199V397.3H178ZM168.5 392.4L168.171 393.344L168.184 393.349L168.197 393.353L168.5 392.4ZM157.7 389.9C150.918 389.9 144.701 391.65 139.072 395.151L140.128 396.849C145.432 393.55 151.282 391.9 157.7 391.9V389.9ZM139.075 395.149C133.527 398.573 129.11 403.199 125.829 409.008L127.571 409.992C130.69 404.468 134.873 400.093 140.125 396.851L139.075 395.149ZM125.827 409.012C122.61 414.762 121 420.964 121 427.6H123C123 421.303 124.524 415.438 127.573 409.988L125.827 409.012ZM121 427.6C121 434.305 122.644 440.543 125.932 446.296L127.668 445.304C124.556 439.857 123 433.962 123 427.6H121ZM125.932 446.296C129.21 452.033 133.556 456.621 138.965 460.045L140.035 458.355C134.911 455.112 130.79 450.767 127.668 445.304L125.932 446.296ZM138.978 460.053C144.465 463.414 150.379 465.1 156.7 465.1V463.1C150.755 463.1 145.202 461.52 140.022 458.347L138.978 460.053ZM156.7 465.1C160.359 465.1 163.64 464.761 166.532 464.073L166.068 462.127C163.36 462.772 160.241 463.1 156.7 463.1V465.1ZM166.527 464.074C169.487 463.385 172.31 462.284 174.991 460.771L174.009 459.029C171.49 460.45 168.846 461.481 166.073 462.126L166.527 464.074ZM175.5 459.9V436.4H173.5V459.9H175.5ZM174.5 435.4H149.7V437.4H174.5V435.4ZM150.7 436.4V433.5H148.7V436.4H150.7ZM149.7 434.5H177.8V432.5H149.7V434.5ZM176.8 433.5V457.8H178.8V433.5H176.8ZM178.247 458.694L178.447 458.594L177.553 456.806L177.353 456.906L178.247 458.694ZM177 457.7V461.4H179V457.7H177ZM177.483 460.544C174.361 462.43 171.152 463.79 167.853 464.631L168.347 466.569C171.848 465.677 175.239 464.237 178.517 462.256L177.483 460.544ZM167.83 464.637C164.597 465.542 161.023 466 157.1 466V468C161.177 468 164.936 467.524 168.37 466.563L167.83 464.637ZM157.1 466C150.27 466 144.011 464.344 138.301 461.035L137.299 462.765C143.323 466.256 149.93 468 157.1 468V466ZM138.309 461.039C132.593 457.661 128.048 453.053 124.666 447.2L122.934 448.2C126.485 454.347 131.274 459.205 137.291 462.761L138.309 461.039ZM124.672 447.211C121.363 441.306 119.7 434.677 119.7 427.3H117.7C117.7 434.99 119.437 441.961 122.928 448.189L124.672 447.211ZM119.7 427.3C119.7 420.204 121.423 413.747 124.862 407.907L123.138 406.893C119.51 413.053 117.7 419.863 117.7 427.3H119.7ZM124.857 407.914C128.373 402.056 133.019 397.444 138.804 394.063L137.796 392.337C131.714 395.89 126.827 400.744 123.143 406.886L124.857 407.914ZM138.8 394.066C144.653 390.684 150.848 389 157.4 389V387C150.486 387 143.947 388.782 137.8 392.334L138.8 394.066ZM157.4 389C162.02 389 165.604 389.431 168.198 390.253L168.802 388.347C165.929 387.436 162.113 387 157.4 387V389ZM168.219 390.26C170.851 391.03 173.942 392.424 177.502 394.467L178.498 392.733C174.858 390.643 171.616 389.17 168.781 388.34L168.219 390.26ZM177 393.6V397.3H179V393.6H177ZM178.566 396.475C175.111 394.104 171.855 392.418 168.803 391.447L168.197 393.353C171.011 394.248 174.089 395.829 177.434 398.125L178.566 396.475ZM168.829 391.456C165.822 390.407 162.102 389.9 157.7 389.9V391.9C161.965 391.9 165.445 392.393 168.171 393.344L168.829 391.456ZM261.729 465V466H263.33L262.628 464.561L261.729 465ZM258.229 465L257.333 465.445L257.609 466H258.229V465ZM244.029 436.4L244.925 435.955L244.649 435.4H244.029V436.4ZM204.229 436.4V435.4H203.603L203.33 435.963L204.229 436.4ZM190.329 465V466H190.955L191.228 465.437L190.329 465ZM186.829 465L185.93 464.562L185.23 466H186.829V465ZM224.229 388.2L225.128 387.761L224.228 385.918L223.33 387.762L224.229 388.2ZM242.829 433.5V434.5H244.437L243.726 433.057L242.829 433.5ZM224.029 395.4L224.926 394.957L224.019 393.121L223.128 394.965L224.029 395.4ZM205.629 433.5L204.728 433.065L204.035 434.5H205.629V433.5ZM261.729 464H258.229V466H261.729V464ZM259.125 464.555L244.925 435.955L243.133 436.845L257.333 465.445L259.125 464.555ZM244.029 435.4H204.229V437.4H244.029V435.4ZM203.33 435.963L189.43 464.563L191.228 465.437L205.128 436.837L203.33 435.963ZM190.329 464H186.829V466H190.329V464ZM187.728 465.438L225.128 388.638L223.33 387.762L185.93 464.562L187.728 465.438ZM223.33 388.639L260.83 465.439L262.628 464.561L225.128 387.761L223.33 388.639ZM243.726 433.057L224.926 394.957L223.132 395.842L241.932 433.942L243.726 433.057ZM223.128 394.965L204.728 433.065L206.529 433.935L224.929 395.835L223.128 394.965ZM205.629 434.5H242.829V432.5H205.629V434.5ZM281.745 461.9L281.237 462.761L281.244 462.765L281.745 461.9ZM267.745 447.7L266.873 448.189L266.879 448.2L267.745 447.7ZM267.945 407.4L267.088 406.885L267.084 406.893L267.945 407.4ZM282.245 393.2L281.745 392.334L281.741 392.337L282.245 393.2ZM312.445 389.3L312.143 390.253L312.154 390.257L312.164 390.26L312.445 389.3ZM321.945 393.6H322.945V393.021L322.443 392.733L321.945 393.6ZM321.945 397.3L321.379 398.125L322.945 399.199V397.3H321.945ZM312.445 392.4L312.116 393.344L312.129 393.349L312.142 393.353L312.445 392.4ZM283.545 396L284.071 396.851L284.073 396.849L283.545 396ZM270.645 409.5L269.775 409.008L269.773 409.012L270.645 409.5ZM270.745 445.8L269.877 446.296L269.877 446.296L270.745 445.8ZM283.445 459.2L282.911 460.045L282.917 460.049L282.923 460.053L283.445 459.2ZM312.145 462.6L312.438 463.556L312.447 463.553L312.456 463.551L312.145 462.6ZM321.945 457.7H322.945V455.821L321.387 456.871L321.945 457.7ZM321.945 461.4L322.462 462.256L322.945 461.964V461.4H321.945ZM312.045 465.6L311.798 464.631L311.787 464.634L311.776 464.637L312.045 465.6ZM301.045 466C294.215 466 287.956 464.344 282.247 461.035L281.244 462.765C287.268 466.256 293.875 468 301.045 468V466ZM282.254 461.039C276.538 457.661 271.993 453.053 268.611 447.2L266.879 448.2C270.431 454.347 275.219 459.205 281.237 462.761L282.254 461.039ZM268.618 447.211C265.308 441.306 263.645 434.677 263.645 427.3H261.645C261.645 434.99 263.382 441.961 266.873 448.189L268.618 447.211ZM263.645 427.3C263.645 420.204 265.368 413.747 268.807 407.907L267.084 406.893C263.456 413.053 261.645 419.863 261.645 427.3H263.645ZM268.803 407.914C272.318 402.056 276.964 397.444 282.75 394.063L281.741 392.337C275.66 395.89 270.773 400.744 267.088 406.886L268.803 407.914ZM282.746 394.066C288.598 390.684 294.793 389 301.345 389V387C294.431 387 287.892 388.782 281.745 392.334L282.746 394.066ZM301.345 389C305.965 389 309.549 389.431 312.143 390.253L312.748 388.347C309.875 387.436 306.059 387 301.345 387V389ZM312.164 390.26C314.796 391.03 317.888 392.424 321.447 394.467L322.443 392.733C318.803 390.643 315.561 389.17 312.726 388.34L312.164 390.26ZM320.945 393.6V397.3H322.945V393.6H320.945ZM322.511 396.475C319.056 394.104 315.801 392.418 312.749 391.447L312.142 393.353C314.957 394.248 318.035 395.829 321.379 398.125L322.511 396.475ZM312.775 391.456C309.767 390.407 306.047 389.9 301.645 389.9V391.9C305.91 391.9 309.39 392.393 312.116 393.344L312.775 391.456ZM301.645 389.9C294.864 389.9 288.647 391.65 283.017 395.151L284.073 396.849C289.377 393.55 295.227 391.9 301.645 391.9V389.9ZM283.02 395.149C277.473 398.573 273.055 403.199 269.775 409.008L271.516 409.992C274.635 404.468 278.818 400.093 284.071 396.851L283.02 395.149ZM269.773 409.012C266.555 414.762 264.945 420.964 264.945 427.6H266.945C266.945 421.303 268.469 415.438 271.518 409.988L269.773 409.012ZM264.945 427.6C264.945 434.305 266.59 440.543 269.877 446.296L271.614 445.304C268.501 439.857 266.945 433.962 266.945 427.6H264.945ZM269.877 446.296C273.155 452.033 277.501 456.621 282.911 460.045L283.98 458.355C278.856 455.112 274.735 450.767 271.614 445.304L269.877 446.296ZM282.923 460.053C288.41 463.414 294.324 465.1 300.645 465.1V463.1C294.7 463.1 289.147 461.52 283.968 458.347L282.923 460.053ZM300.645 465.1C305.118 465.1 309.054 464.592 312.438 463.556L311.853 461.644C308.704 462.608 304.973 463.1 300.645 463.1V465.1ZM312.456 463.551C315.822 462.451 319.171 460.774 322.504 458.529L321.387 456.871C318.186 459.026 315.002 460.615 311.835 461.649L312.456 463.551ZM320.945 457.7V461.4H322.945V457.7H320.945ZM321.428 460.544C318.307 462.43 315.097 463.79 311.798 464.631L312.292 466.569C315.793 465.677 319.184 464.237 322.462 462.256L321.428 460.544ZM311.776 464.637C308.543 465.542 304.968 466 301.045 466V468C305.123 468 308.881 467.524 312.315 466.563L311.776 464.637ZM336.158 390V389H335.158V390H336.158ZM363.058 390H364.058V389H363.058V390ZM363.058 392.9V393.9H364.058V392.9H363.058ZM339.458 392.9V391.9H338.458V392.9H339.458ZM339.458 433.7H338.458V434.7H339.458V433.7ZM359.158 433.7H360.158V432.7H359.158V433.7ZM359.158 436.6V437.6H360.158V436.6H359.158ZM339.458 436.6V435.6H338.458V436.6H339.458ZM339.458 462.1H338.458V463.1H339.458V462.1ZM363.058 462.1H364.058V461.1H363.058V462.1ZM363.058 465V466H364.058V465H363.058ZM336.158 465H335.158V466H336.158V465ZM336.158 391H363.058V389H336.158V391ZM362.058 390V392.9H364.058V390H362.058ZM363.058 391.9H339.458V393.9H363.058V391.9ZM338.458 392.9V433.7H340.458V392.9H338.458ZM339.458 434.7H359.158V432.7H339.458V434.7ZM358.158 433.7V436.6H360.158V433.7H358.158ZM359.158 435.6H339.458V437.6H359.158V435.6ZM338.458 436.6V462.1H340.458V436.6H338.458ZM339.458 463.1H363.058V461.1H339.458V463.1ZM362.058 462.1V465H364.058V462.1H362.058ZM363.058 464H336.158V466H363.058V464ZM337.158 465V390H335.158V465H337.158ZM373.56 390V389H372.56V390H373.56ZM376.86 390H377.86V389H376.86V390ZM376.86 462.1H375.86V463.1H376.86V462.1ZM400.06 462.1H401.06V461.1H400.06V462.1ZM400.06 465V466H401.06V465H400.06ZM373.56 465H372.56V466H373.56V465ZM373.56 391H376.86V389H373.56V391ZM375.86 390V462.1H377.86V390H375.86ZM376.86 463.1H400.06V461.1H376.86V463.1ZM399.06 462.1V465H401.06V462.1H399.06ZM400.06 464H373.56V466H400.06V464ZM374.56 465V390H372.56V465H374.56ZM480.284 465V466H481.885L481.182 464.561L480.284 465ZM476.784 465L475.888 465.445L476.164 466H476.784V465ZM462.584 436.4L463.479 435.955L463.204 435.4H462.584V436.4ZM422.784 436.4V435.4H422.158L421.884 435.963L422.784 436.4ZM408.884 465V466H409.509L409.783 465.437L408.884 465ZM405.384 465L404.485 464.562L403.784 466H405.384V465ZM442.784 388.2L443.682 387.761L442.782 385.918L441.885 387.762L442.784 388.2ZM461.384 433.5V434.5H462.992L462.28 433.057L461.384 433.5ZM442.584 395.4L443.48 394.957L442.574 393.121L441.683 394.965L442.584 395.4ZM424.184 433.5L423.283 433.065L422.59 434.5H424.184V433.5ZM480.284 464H476.784V466H480.284V464ZM477.679 464.555L463.479 435.955L461.688 436.845L475.888 465.445L477.679 464.555ZM462.584 435.4H422.784V437.4H462.584V435.4ZM421.884 435.963L407.984 464.563L409.783 465.437L423.683 436.837L421.884 435.963ZM408.884 464H405.384V466H408.884V464ZM406.283 465.438L443.683 388.638L441.885 387.762L404.485 464.562L406.283 465.438ZM441.885 388.639L479.385 465.439L481.182 464.561L443.682 387.761L441.885 388.639ZM462.28 433.057L443.48 394.957L441.687 395.842L460.487 433.942L462.28 433.057ZM441.683 394.965L423.283 433.065L425.084 433.935L443.484 395.835L441.683 394.965ZM424.184 434.5H461.384V432.5H424.184V434.5Z" fill="#0F4390"/>
</g>
<path d="M237 166L241 231" stroke="#0F4390" stroke-width="5"/>
</g>
<defs>
<filter id="filter0_d" x="113.7" y="385.918" width="372.185" height="90.0816" filterUnits="userSpaceOnUse" color-interpolation-filters="sRGB">
<feFlood flood-opacity="0" result="BackgroundImageFix"/>
<feColorMatrix in="SourceAlpha" type="matrix" values="0 0 0 0 0 0 0 0 0 0 0 0 0 0 0 0 0 0 127 0"/>
<feOffset dy="4"/>
<feGaussianBlur stdDeviation="2"/>
<feColorMatrix type="matrix" values="0 0 0 0 0 0 0 0 0 0 0 0 0 0 0 0 0 0 0.25 0"/>
<feBlend mode="normal" in2="BackgroundImageFix" result="effect1_dropShadow"/>
<feBlend mode="normal" in="SourceGraphic" in2="effect1_dropShadow" result="shape"/>
</filter>
<clipPath id="clip0">
<rect width="500" height="500" fill="white"/>
</clipPath>
</defs>
</svg>
