<svg xmlns="http://www.w3.org/2000/svg" viewBox="0 0 698.275 466.118">
    <g fill="none" stroke="#123456" stroke-linejoin="round" stroke-width="3">
        <path d="M288.706 1.5l93.176 51.176-7.266 3.507-2.263-2.565-34.029-13.971L288.706 1.5zM8.118 454.647l16.5-20.471 2.911 27.177-19.411-6.706z"/>
        <path d="M29.471 337.529l-4.853 96.647-16.5 20.471 21.353-117.118z"/>
        <path d="M22.632 322.603l6.839 14.926L8.118 454.647l14.514-132.044z"/>
        <path d="M51 254.794l-21.529 82.735-6.839-14.926L51 254.794z"/>
        <path d="M79.059 209.265l-39.883 24.882L51 254.794l28.059-45.529z"/>
        <path d="M54 197.529l25.059 11.736-39.883 24.882L54 197.529z"/>
        <path d="M27.794 230.088L54 197.529l-14.824 36.618-11.382-4.059z"/>
        <path d="M1.5 280.029l26.294-49.941 5.444 1.941-31.738 48z"/>
        <path d="M20.382 221.618l7.412 8.47L1.5 280.029l18.882-58.411z"/>
        <path d="M54 197.529l-26.206 32.559-7.412-8.47L54 197.529z"/>
        <path d="M129.059 171.853L54 197.529l25.059 11.736 50-37.412z"/>
        <path d="M143.412 207.029l-14.353-35.176-50 37.412 64.353-2.236z"/>
        <path d="M116.501 284.338l26.911-77.309-64.353 2.236 37.442 75.073z"/>
        <path d="M116.501 284.338L51 254.794l28.059-45.529 37.442 75.073z"/>
        <path d="M116.501 284.338l-87.03 53.191L51 254.794l65.501 29.544z"/>
        <path d="M24.618 434.176L46 339.029l-16.529-1.5-4.853 96.647z"/>
        <path d="M29.471 337.529l16.529 1.5 84-62.941-100.529 61.441z"/>
        <path d="M130 276.088l13.412-69.059-26.911 77.309 13.499-8.25z"/>
        <path d="M298.412 169.382l-169.353 2.471 14.353 35.176 155-37.647z"/>
        <path d="M298.412 169.382l-38.471 54.883-116.529-17.236 155-37.647z"/>
        <path d="M259.941 224.265l-35.117 35.294-81.412-52.53 116.529 17.236z"/>
        <path d="M224.824 259.559L130 276.088l13.412-69.059 81.412 52.53z"/>
        <path d="M224.824 259.559l-52.942 41.647L130 276.088l94.824-16.529z"/>
        <path d="M224.824 259.559l-21.706 99.706 56.823-135-35.117 35.294z"/>
        <path d="M224.824 259.559l-52.412 200.294 30.706-100.588 21.706-99.706z"/>
        <path d="M171.882 301.206l43.542-5.725 9.4-35.922-52.942 41.647zm.53 158.647l18.264-19.765 3.971 24.53-22.235-4.765z"/>
        <path d="M172.412 459.412l30.706-100.147-12.442 80.382-18.264 19.765z"/>
        <path d="M190.676 440.088l33.559-80.823h-21.117l-12.442 80.823z"/>
        <path d="M281.059 265.265l-21.118-41-56.823 135 77.941-94z"/>
        <path d="M281.059 265.265l-56.824 94h-21.117l77.941-94z"/>
        <path d="M333.647 185.029l-52.588 80.236-21.118-41 73.706-39.236z"/>
        <path d="M333.647 185.029l-35.235-15.647-38.471 54.883 73.706-39.236z"/>
        <path d="M333.647 185.029l52.294-56.588-87.529 40.941 35.235 15.647zM106.588 431.265l10.824 22.706H99.176l7.412-22.706z"/>
        <path d="M99.176 453.971l-4.823-113.765 12.235 91.059-7.412 22.706z"/>
        <path d="M99.176 453.971l-31.764-118 26.941 4.235 4.823 113.765z"/>
        <path d="M67.412 335.971v-12.985l17.858-13.381 9.083 30.601-26.941-4.235z"/>
        <path d="M94.353 340.206l-9.083-30.601 37.212-27.884 13.398 5.285-41.527 53.2zm245.618 114.088l10.235-16.941 7.676 16.941h-17.911z"/>
        <path d="M339.971 454.294l-41.118-93.618 51.353 76.677-10.235 16.941zm20.911-241.5l-27.235-27.765-52.588 80.236-17.854 29.534 97.677-82.005z"/>
        <path d="M360.882 212.794l45.589-55.176-72.824 27.411 27.235 27.765z"/>
        <path d="M406.471 157.618l-20.53-29.177-52.294 56.588 72.824-27.411zM298.853 360.676L269.8 289.262l51.259 54.12-22.206 17.294z"/>
        <path d="M321.059 343.382l-15.471-84.165-35.788 30.045 51.259 54.12z"/>
        <path d="M321.059 343.382l29.147 93.971-51.353-76.677 22.206-17.294zm85.412-185.764l64.705.706-85.235-29.883 20.53 29.177z"/>
        <path d="M471.176 158.324l6.589-14.942-49.206-26.47-42.618 11.529 85.235 29.883z"/>
        <path d="M395.529 107.735l33.03 9.177-42.618 11.529 9.588-20.706z"/>
        <path d="M395.529 107.735l9.412-17.176 23.618 26.353-33.03-9.177zm-15.56 8.245l-20.91-55.186 2-2.941 21.722 32.706-2.812 25.421z"/>
        <path d="M261.882 8.265l99.177 49.588-2 2.941-97.177-52.529z"/>
        <path d="M361.059 57.853l11.294-4.235L261.882 8.265l99.177 49.588z"/>
        <path d="M372.353 53.618l32.588 36.941-43.882-32.706 11.294-4.235z"/>
        <path d="M384.469 75.301l-23.41-17.448 21.722 32.706 1.688-15.258zm-2.587-22.625l23.059 37.883-30.325-34.376 7.266-3.507zm-83.47 116.706l75.815-68.556 5.742 15.154-.91 8.226 6.882 4.235-87.529 40.941z"/>
        <path d="M385.941 128.441l-6.882-4.235 5.882-53.177 10.588 36.706-9.588 20.706zm24.088-56.823l-5.088 18.941-3.387-5.565 8.475-13.376zM171.882 301.206L130 276.088l-7.518 5.633 49.4 19.485z"/>
        <path d="M404.941 90.559l-9.412 17.176-8.889-30.816 18.301 13.64z"/>
    </g>
    <path d="M427.779 454.471a29.12 29.12 0 0 1-13.4-3.101 34.61 34.61 0 0 1-10.6-8.3 38.77 38.77 0 0 1-6.95-11.6c-1.611-4.145-2.442-8.553-2.45-13a38.58 38.58 0 0 1 9.15-25c2.847-3.359 6.352-6.099 10.3-8.05 4.06-1.988 8.529-2.998 13.05-2.95q10.8 0 17.25 4.35c4.203 2.791 7.599 6.636 9.851 11.15l-3 1.5a23.57 23.57 0 0 0-10-10.5 30.53 30.53 0 0 0-14.2-3.2 25.75 25.75 0 0 0-11.95 2.75c-3.54 1.812-6.658 4.351-9.15 7.45a34.24 34.24 0 0 0-5.8 10.55 36.69 36.69 0 0 0-2 11.95c-.021 8.454 3.097 16.614 8.75 22.899a30.5 30.5 0 0 0 9.601 7.2 26.92 26.92 0 0 0 11.75 2.601 28.06 28.06 0 0 0 13.5-3.45c4.804-2.772 8.99-6.499 12.3-10.95v4.2q-11.002 13.5-26 13.5zm24.8-31.601h-16.4v-3h19.601v34.101h-3.2zm12.8 16.253a11.94 11.94 0 0 1 2.8-7.925 18.98 18.98 0 0 1 7.6-5.283 29.73 29.73 0 0 1 11.2-1.943 52.95 52.95 0 0 1 8.7.75 46.41 46.41 0 0 1 8.1 2.05v-5.5q0-7.598-4.45-12.25-4.45-4.649-11.949-4.65c-2.758.044-5.486.586-8.051 1.601a38.97 38.97 0 0 0-8.649 4.7l-1.7-2.5a44.9 44.9 0 0 1 9.7-5.2c2.842-1.091 5.855-1.667 8.899-1.7q9 0 14.301 5.439 5.298 5.439 5.3 14.72v27.346a2.55 2.55 0 0 0 .45 1.646 1.64 1.64 0 0 0 1.35.549v3h-1.15a2.38 2.38 0 0 1-.75-.101 3.4 3.4 0 0 1-2.199-1.5 5.26 5.26 0 0 1-.9-2.6v-4.5a24.04 24.04 0 0 1-9.3 7.15c-3.839 1.708-7.998 2.577-12.2 2.55-3.029.041-6.021-.679-8.7-2.093a15.95 15.95 0 0 1-6.149-5.73 14.96 14.96 0 0 1-2.25-8.025zm36.6 4.481a10.03 10.03 0 0 0 1.35-2.341 5.65 5.65 0 0 0 .45-2.041v-9.464a44.57 44.57 0 0 0-8.05-2.24c-2.822-.502-5.683-.752-8.55-.747q-8.301 0-13.4 3.338-5.099 3.337-5.1 8.813a12.24 12.24 0 0 0 1.85 6.575 13.57 13.57 0 0 0 5.101 4.781 14.74 14.74 0 0 0 7.25 1.792 27.1 27.1 0 0 0 11.35-2.341 18.25 18.25 0 0 0 7.75-6.126zm42.499 11.367a23.14 23.14 0 0 1-9.9-2.146c-3.054-1.422-5.805-3.422-8.1-5.889-2.343-2.51-4.192-5.44-5.45-8.635a28.01 28.01 0 0 1-1.95-10.481 27.44 27.44 0 0 1 3.301-13.474 25.38 25.38 0 0 1 9.05-9.532 24.18 24.18 0 0 1 12.95-3.544 23.23 23.23 0 0 1 12.1 3.15 19.64 19.64 0 0 1 7.9 8.649l-3.301 1.2a17.44 17.44 0 0 0-6.949-7.2 20.74 20.74 0 0 0-20.95.494 22.51 22.51 0 0 0-7.8 8.383 24.26 24.26 0 0 0-2.9 11.873 24.89 24.89 0 0 0 2.95 11.977 23.55 23.55 0 0 0 7.899 8.731c3.214 2.136 6.992 3.265 10.851 3.242 2.602 0 5.18-.492 7.6-1.45a21.69 21.69 0 0 0 6.4-3.8 10.9 10.9 0 0 0 3.5-5.05l3.399 1a15.11 15.11 0 0 1-4.35 6.45 23.06 23.06 0 0 1-7.35 4.449 24.8 24.8 0 0 1-8.9 1.601zm53.5 0a23.21 23.21 0 0 1-9.851-2.15c-3.066-1.408-5.819-3.414-8.1-5.899a27.72 27.72 0 0 1-5.4-8.7 28.52 28.52 0 0 1-1.95-10.55 26.95 26.95 0 0 1 3.301-13.249 26.02 26.02 0 0 1 8.949-9.563c7.827-4.802 17.692-4.783 25.5.05a27.18 27.18 0 0 1 9.051 9.665 26.82 26.82 0 0 1 3.399 13.403v.797c-.001.269-.034.536-.1.797h-46.601c.278 4.025 1.494 7.929 3.551 11.4a23.56 23.56 0 0 0 7.899 8.1 19.68 19.68 0 0 0 10.55 3 20.7 20.7 0 0 0 10.7-2.95c3.098-1.713 5.581-4.353 7.101-7.55l3.1.8a18.21 18.21 0 0 1-4.7 6.5 23.04 23.04 0 0 1-7.45 4.5 25.2 25.2 0 0 1-8.949 1.601zm-21.9-28.3h43.4c-.179-4.077-1.328-8.053-3.351-11.598-1.87-3.253-4.537-5.977-7.75-7.915a20.36 20.36 0 0 0-10.7-2.888 19.91 19.91 0 0 0-10.55 2.888 22.12 22.12 0 0 0-7.7 7.964 25.8 25.8 0 0 0-3.35 11.549zm58.699-45.7h3.5v64.555c-.143 1.755.455 3.491 1.65 4.784 1.187 1.074 2.751 1.635 4.35 1.561a16.66 16.66 0 0 0 2.95-.3 25.75 25.75 0 0 0 2.95-.7l.8 2.801a27.25 27.25 0 0 1-3.75.899 22.61 22.61 0 0 1-3.85.4c-2.303.089-4.542-.765-6.2-2.366-1.652-1.706-2.521-4.022-2.4-6.394zm19.899 58.152a11.94 11.94 0 0 1 2.8-7.925 18.99 18.99 0 0 1 7.601-5.283 29.72 29.72 0 0 1 11.199-1.943 52.92 52.92 0 0 1 8.701.75 46.43 46.43 0 0 1 8.1 2.05v-5.5q0-7.598-4.449-12.25-4.453-4.649-11.951-4.65a22.89 22.89 0 0 0-8.049 1.601c-3.071 1.194-5.978 2.774-8.651 4.7l-1.7-2.5c3.008-2.125 6.266-3.871 9.701-5.2a25.61 25.61 0 0 1 8.9-1.7q9 0 14.299 5.439 5.3 5.439 5.301 14.72v27.346a2.56 2.56 0 0 0 .449 1.646c.34.383.839.586 1.35.549v3h-1.148a2.35 2.35 0 0 1-.75-.101 3.4 3.4 0 0 1-2.201-1.5 5.29 5.29 0 0 1-.9-2.6v-4.5a24.03 24.03 0 0 1-9.299 7.15 29.55 29.55 0 0 1-12.201 2.55 18.11 18.11 0 0 1-8.699-2.093 15.94 15.94 0 0 1-6.15-5.73 14.96 14.96 0 0 1-2.25-8.025zm36.6 4.481a10.04 10.04 0 0 0 1.352-2.341 5.69 5.69 0 0 0 .449-2.041v-9.464a44.6 44.6 0 0 0-8.051-2.24 48.33 48.33 0 0 0-8.549-.747q-8.303 0-13.4 3.338-5.101 3.337-5.101 8.813a12.24 12.24 0 0 0 1.851 6.575 13.57 13.57 0 0 0 5.1 4.781 14.76 14.76 0 0 0 7.25 1.792 27.1 27.1 0 0 0 11.35-2.341 18.24 18.24 0 0 0 7.75-6.126z" fill="#123456"/>
</svg>
